<svg width="88" height="24" viewBox="0 0 88 24" fill="none" xmlns="http://www.w3.org/2000/svg">
<g style="mix-blend-mode:difference">
<g clip-path="url(#clip0_2054_10957)">
<mask id="mask0_2054_10957" style="mask-type:luminance" maskUnits="userSpaceOnUse" x="0" y="0" width="88" height="24">
<path d="M87.5 0H0V23.6486H87.5V0Z" fill="white"/>
</mask>
<g mask="url(#mask0_2054_10957)">
<mask id="mask1_2054_10957" style="mask-type:luminance" maskUnits="userSpaceOnUse" x="0" y="0" width="24" height="24">
<path d="M23.861 0H0V23.6486H23.861V0Z" fill="white"/>
</mask>
<g mask="url(#mask1_2054_10957)">
<mask id="mask2_2054_10957" style="mask-type:luminance" maskUnits="userSpaceOnUse" x="0" y="0" width="24" height="24">
<path d="M23.861 0H0V23.6486H23.861V0Z" fill="white"/>
</mask>
<g mask="url(#mask2_2054_10957)">
<path d="M17.9238 22.804C17.3014 23.137 16.6464 23.4139 15.9674 23.6433L12.1952 16.5924C12.0837 16.3851 11.7837 16.3851 11.6722 16.5924L7.89486 23.6484C7.21758 23.419 6.56601 23.137 5.94531 22.804L10.3914 14.4992C10.7326 13.8587 11.4459 13.4917 12.1883 13.597C12.7542 13.6769 13.236 14.0472 13.5035 14.5468L17.9238 22.804Z" fill="white"/>
<path d="M17.9182 0.84951L13.4738 9.15262C13.1703 9.72009 12.5788 10.0718 11.9324 10.0718V10.0752C11.2825 10.0752 10.6927 9.72179 10.3909 9.15601L5.94141 0.844412C6.56211 0.509706 7.21539 0.229368 7.89439 0.00169902L11.6717 7.05773C11.7832 7.26501 12.0833 7.26501 12.1947 7.05773L15.9721 0C16.6494 0.227669 17.2992 0.516502 17.9199 0.84951" fill="white"/>
<path d="M10.1455 12.0804C10.065 12.6411 9.69117 13.1185 9.18706 13.3836L0.853893 17.7636C0.516108 17.1469 0.233192 16.4996 0.00342929 15.8267L7.12263 12.0855C7.33182 11.9751 7.33182 11.6794 7.12263 11.5673L0 7.82606C0.229762 7.15495 0.512679 6.50762 0.848749 5.89258L9.23507 10.3015C9.87978 10.6396 10.2519 11.3464 10.1455 12.0821" fill="white"/>
<path d="M23.8593 15.8209C23.6296 16.4937 23.3467 17.1427 23.0106 17.7578L14.6277 13.3522C13.983 13.0141 13.6109 12.3073 13.7172 11.5716C13.7978 11.011 14.1716 10.5335 14.6757 10.2685L23.0123 5.88672C23.3484 6.50176 23.6279 7.15079 23.8593 7.8219L16.7401 11.5631C16.531 11.6736 16.531 11.9709 16.7401 12.0813L23.8576 15.8226L23.8593 15.8209Z" fill="white"/>
</g>
</g>
<path d="M34.0252 22.8029V22.3458L41.8576 0.844727H46.6895L54.522 22.3458V22.8029H50.7052L48.7505 17.2674H39.7023L37.7476 22.8029H34.0234H34.0252ZM40.6111 14.4318H47.8435L44.3816 4.55029H44.0747L40.6128 14.4318H40.6111Z" fill="white"/>
<path d="M60.8931 0.844727H57.2461V22.8029H60.8931V0.844727Z" fill="white"/>
<path d="M64.0469 14.919C64.0469 13.1299 64.3984 11.6229 65.1014 10.3979C65.8044 9.17291 66.7766 8.24864 68.018 7.62341C69.2594 6.99817 70.6911 6.68555 72.3115 6.68555C73.9318 6.68555 75.3481 6.99817 76.5895 7.62341C77.8309 8.24864 78.8031 9.17291 79.5061 10.3979C80.2091 11.6229 80.5606 13.1299 80.5606 14.919C80.5606 16.7081 80.2091 18.2304 79.5061 19.4554C78.8031 20.6804 77.8309 21.6046 76.5895 22.2299C75.3481 22.8551 73.9215 23.1677 72.3115 23.1677C70.7014 23.1677 69.2594 22.8551 68.018 22.2299C66.7766 21.6046 65.8044 20.6804 65.1014 19.4554C64.3984 18.2304 64.0469 16.7183 64.0469 14.919ZM67.7402 14.919C67.7402 16.7488 68.1586 18.1335 68.9936 19.0748C69.8304 20.0161 70.9346 20.485 72.3097 20.485C73.6849 20.485 74.7891 20.0144 75.6259 19.0748C76.4626 18.1352 76.8793 16.7488 76.8793 14.919C76.8793 13.0891 76.4609 11.7197 75.6259 10.7785C74.7891 9.83893 73.6849 9.3683 72.3097 9.3683C70.9346 9.3683 69.8304 9.83893 68.9936 10.7785C68.1569 11.7197 67.7402 13.0993 67.7402 14.919Z" fill="white"/>
<path d="M83.5742 1.37793H87.499V4.70291H83.5742V1.37793ZM83.7131 7.05095H87.3602V22.8026H83.7131V7.05095Z" fill="white"/>
</g>
</g>
</g>
<defs>
<clipPath id="clip0_2054_10957">
<rect width="87.5" height="23.6486" fill="white"/>
</clipPath>
</defs>
</svg>
